P2
3 3
255
3 6 9 2 5 8 1 4 7
